HIERARCHY
ROOT Hips
{
	OFFSET -0.179506 -22.333345 2.821913
	CHANNELS 6 Xposition Yposition Zposition Zrotation Yrotation Xrotation 
	JOINT LeftUpLeg
	{
		OFFSET 6.951974 -9.140623 -0.681533
		CHANNELS 3 Zrotation Yrotation Xrotation
		JOINT LeftLeg
		{
			OFFSET 3.427654 -37.519855 -0.449580
			CHANNELS 3 Zrotation Yrotation Xrotation
			JOINT LeftFoot
			{
				OFFSET -1.359570 -39.796059 -4.369333
				CHANNELS 3 Zrotation Yrotation Xrotation
				JOINT LeftToe
				{
					OFFSET 2.635814 -5.579078 11.928840
					CHANNELS 3 Zrotation Yrotation Xrotation
					End Site
					{
						OFFSET 0.000000 0.000000 0.000000
					}
				}
			}
		}
	}
	JOINT RightUpLeg
	{
		OFFSET -6.767048 -9.052170 -0.431982
		CHANNELS 3 Zrotation Yrotation Xrotation
		JOINT RightLeg
		{
			OFFSET -3.829005 -38.256897 -0.885003
			CHANNELS 3 Zrotation Yrotation Xrotation
			JOINT RightFoot
			{
				OFFSET 1.577377 -39.841461 -4.231180
				CHANNELS 3 Zrotation Yrotation Xrotation
				JOINT RightToe
				{
					OFFSET -2.537174 -4.814398 12.334795
					CHANNELS 3 Zrotation Yrotation Xrotation
					End Site
					{
						OFFSET 0.000000 0.000000 0.000000
					}
				}
			}
		}
	}
	JOINT Spine
	{
		OFFSET -0.253288 10.896323 -2.669631
		CHANNELS 3 Zrotation Yrotation Xrotation
		JOINT Spine1
		{
			OFFSET 0.548704 13.518043 0.109247
			CHANNELS 3 Zrotation Yrotation Xrotation
			JOINT Spine2
			{
				OFFSET 0.145701 5.292222 2.542457
				CHANNELS 3 Zrotation Yrotation Xrotation
				JOINT Neck
				{
					OFFSET -0.277840 21.387037 -4.285703
					CHANNELS 3 Zrotation Yrotation Xrotation
					JOINT Head
					{
						OFFSET 0.515184 6.496960 5.134897
						CHANNELS 3 Zrotation Yrotation Xrotation
						End Site
						{
							OFFSET 0.000000 0.000000 0.000000
						}
					}
				}
				JOINT LeftShoulder
				{
					OFFSET 7.884473 12.174932 -3.408961
					CHANNELS 3 Zrotation Yrotation Xrotation
					JOINT LeftArm
					{
						OFFSET 9.097692 3.046888 -0.886815
						CHANNELS 3 Zrotation Yrotation Xrotation
						JOINT LeftForeArm
						{
							OFFSET 25.961220 -1.277207 -2.745643
							CHANNELS 3 Zrotation Yrotation Xrotation
							JOINT LeftHand
							{
								OFFSET 24.923361 0.898606 -0.117091
								CHANNELS 3 Zrotation Yrotation Xrotation
								End Site
								{
									OFFSET 0.000000 0.000000 0.000000
								}
							}
						}
					}
				}
				JOINT RightShoulder
				{
					OFFSET -8.175920 11.883285 -3.861528
					CHANNELS 3 Zrotation Yrotation Xrotation
					JOINT RightArm
					{
						OFFSET -9.601238 3.255117 -0.914307
						CHANNELS 3 Zrotation Yrotation Xrotation
						JOINT RightForeArm
						{
							OFFSET -25.374195 -1.332924 -2.140099
							CHANNELS 3 Zrotation Yrotation Xrotation
							JOINT RightHand
							{
								OFFSET -25.529810 0.777228 -0.555919
								CHANNELS 3 Zrotation Yrotation Xrotation
								End Site
								{
									OFFSET 0.000000 0.000000 0.000000
								}
							}
						}
					}
				}
			}
		}
	}
}
MOTION
Frames: 9
Frame Time: 0.033333
-6.801101 -15.357685 89.531006 -108.473993 -0.921036 82.369882 20.454771 6.105342 -7.710548 -10.682602 -1.739156 31.161166 -1.419893 3.890702 -21.832700 nan nan nan -21.457009 -13.706408 -7.067924 2.106395 -11.917398 29.688618 2.443663 -4.291300 -18.577483 nan nan nan -2.374391 4.307975 2.353357 8.447671 -4.879366 14.386528 1.568371 1.511554 -9.050858 2.371642 -19.017869 21.701223 0.235042 -12.543818 20.400055 -12.426146 -7.814372 2.302838 -60.344148 -42.409437 29.401560 155.571802 -71.368545 -127.542765 -6.858234 -17.931811 -7.688720 11.381823 9.018971 -7.036860 22.900639 32.335207 -8.248526 -79.336207 51.379608 -65.675415 5.628306 8.611894 -6.785243 
-6.906559 -15.704023 89.720909 -108.999266 -0.592602 82.712956 20.521444 6.461827 -7.599605 -10.435594 -1.483601 30.500558 -1.598093 3.812766 -21.844358 nan nan nan -21.144659 -13.676692 -7.017897 2.268033 -11.963867 28.396855 2.980731 -4.116515 -17.611853 nan nan nan -2.471506 4.025910 3.023189 8.596447 -5.055486 13.123871 1.727030 1.308989 -8.803626 2.077204 -19.314660 22.211404 0.786765 -12.951842 20.198481 -12.254230 -7.709355 2.411009 -61.029325 -42.713918 29.761910 155.205407 -71.312523 -126.744671 -7.044721 -18.202032 -8.024585 11.421662 8.604602 -6.844119 23.079706 31.795866 -8.214817 -80.038548 52.108107 -65.431119 6.285891 8.780427 -5.946609 
-6.999302 -16.065193 89.877136 -109.495372 -0.287096 82.879148 20.581461 6.705238 -7.316373 -10.304602 -1.264279 29.862580 -1.592436 3.885135 -21.871804 nan nan nan -20.928115 -13.527826 -6.832899 2.406828 -12.101739 27.234124 3.347644 -3.911574 -16.611580 nan nan nan -2.658152 3.854531 2.898708 8.744753 -5.366432 13.556612 1.890900 1.152451 -8.815556 2.207660 -19.526354 22.313136 1.176309 -13.502792 19.839698 -12.050194 -8.214816 2.468934 -61.422476 -43.209768 29.761455 153.718596 -71.144351 -125.490397 -7.774763 -18.267875 -7.623201 11.340629 8.460084 -6.782996 22.943747 31.100581 -8.483877 -80.789938 52.563698 -65.253675 7.044474 8.664010 -4.375087 
-7.107531 -16.443977 90.016556 -109.988145 0.011478 83.082134 20.607482 6.925021 -7.062795 -10.250738 -1.111769 29.318611 -1.570369 4.006697 -21.996267 nan nan nan -20.675549 -13.393185 -6.767277 2.484988 -12.183787 26.219207 3.545466 -3.669584 -15.389590 nan nan nan -2.908524 3.629859 2.666059 8.929128 -5.710623 14.122679 2.043922 1.070410 -8.878340 2.358742 -19.727807 22.404842 1.550458 -13.977303 19.387749 -11.882950 -8.693647 2.544646 -61.725497 -43.799925 29.883787 152.847156 -70.996817 -125.175713 -7.968659 -17.726353 -6.626150 11.271958 8.270852 -6.573350 22.788105 30.577166 -8.714562 -81.481825 52.889257 -65.320917 7.071357 8.450212 -2.971584 
-7.222278 -16.860189 90.149918 -110.435440 0.307524 83.303411 20.569942 7.097033 -6.879614 -10.128357 -0.914681 28.873722 -1.492598 4.235060 -22.213036 nan nan nan -20.415147 -13.283000 -6.802482 2.517499 -12.200816 25.350144 3.802376 -3.478039 -14.059810 nan nan nan -3.182001 3.408254 2.544986 9.141223 -6.058633 14.517052 2.201441 0.933592 -8.924100 2.424936 -19.996662 22.458398 1.945389 -14.404222 19.117794 -11.772927 -9.134765 2.768837 -61.743140 -44.480085 29.922658 152.786441 -70.818446 -125.326135 -7.474701 -17.020364 -5.460655 11.264728 8.188279 -6.392479 22.590850 29.976309 -8.788912 -82.065876 53.167466 -65.531763 6.640819 8.270073 -2.059315 
-7.325196 -17.319347 90.264900 -110.846325 0.588920 83.538679 20.447955 7.186110 -6.759112 -9.851641 -0.606704 28.434493 -1.376093 4.471607 -22.433684 nan nan nan -20.200120 -13.172160 -6.980432 2.475706 -12.310150 24.673825 4.108594 -3.379584 -12.884743 nan nan nan -3.372688 3.218342 2.488289 9.308185 -6.392132 14.737128 2.335875 0.682164 -8.852808 2.528982 -20.241324 22.447624 2.264076 -14.812327 19.058040 -11.654270 -9.581556 3.010386 -61.861557 -45.001017 29.975579 152.321706 -70.555540 -124.837069 -6.816107 -16.664581 -4.647982 11.363058 8.335148 -6.290602 22.224002 29.278854 -8.796640 -82.434354 53.241675 -65.448563 6.746972 8.029561 -1.153487 
-7.432633 -17.764582 90.371346 -111.292067 0.900630 83.680633 20.381728 7.283148 -6.529203 -9.579487 -0.385142 27.968077 -1.264808 4.601558 -22.610028 nan nan nan -19.973804 -13.124581 -7.147877 2.436306 -12.410780 24.130176 4.389678 -3.340241 -11.829748 nan nan nan -3.491514 3.073795 2.667121 9.454674 -6.630621 14.688362 2.518955 0.417606 -8.736033 2.782843 -20.516450 22.397566 2.391198 -15.018654 18.944395 -11.535009 -10.010849 3.098714 -62.190737 -45.266999 30.088238 151.213863 -70.409055 -123.865233 -6.061728 -16.805694 -4.556532 11.512152 8.370134 -6.162960 21.841965 28.756611 -8.998865 -82.621399 53.413037 -65.164070 6.983785 7.833093 -0.256597 
-7.549382 -18.189146 90.473518 -111.663588 1.245651 83.751815 20.389659 7.384074 -6.272084 -9.402722 -0.334031 27.526661 -1.242232 4.685212 -22.754079 nan nan nan -19.756622 -13.121911 -7.232787 2.434229 -12.587704 23.643700 4.637921 -3.324042 -10.743488 nan nan nan -3.651158 2.938639 2.982855 9.631152 -6.890080 14.538304 2.799736 0.175707 -8.708508 3.019173 -20.891154 22.652137 2.527114 -15.021300 18.426034 -11.513360 -10.630150 3.273348 -62.248574 -45.414226 29.876277 150.013524 -70.245798 -123.004757 -5.539037 -17.152663 -4.846281 11.639279 8.405036 -5.871302 21.417956 28.222490 -9.491667 -82.818335 53.690318 -64.888241 7.070574 7.816757 0.499550 
-7.656735 -18.625546 90.552414 -111.921524 1.535153 83.846414 20.338531 7.384262 -6.091661 -9.310242 -0.385383 27.120840 -1.290962 4.787471 -22.874748 nan nan nan -19.644878 -13.101084 -7.370967 2.445180 -12.880823 23.270940 4.891236 -3.376948 -9.770358 nan nan nan -3.899374 2.784618 3.116924 9.803111 -7.243962 14.636525 2.982620 -0.025369 -8.613893 2.964746 -21.120181 22.861029 3.056112 -15.323388 18.196659 -11.477165 -11.387050 3.512235 -62.111982 -45.792554 29.530024 148.902822 -69.966325 -122.125179 -5.944458 -17.258029 -4.978228 11.870948 8.611601 -5.890721 21.042356 27.475739 -9.750683 -83.150422 53.787672 -64.784748 7.505452 7.730626 1.305076 
